<svg width="25" height="24" viewBox="0 0 25 24" fill="none" xmlns="http://www.w3.org/2000/svg">
    <path
        d="M19.3509 14.49L18.3509 12.83C18.1409 12.46 17.9509 11.76 17.9509 11.35V8.82C17.9509 6.47 16.5709 4.44 14.5809 3.49C14.0609 2.57 13.1009 2 12.0009 2C10.9109 2 9.93093 2.59 9.41093 3.52C7.46093 4.49 6.11093 6.5 6.11093 8.82V11.35C6.11093 11.76 5.92093 12.46 5.71093 12.82L4.70093 14.49C4.30093 15.16 4.21093 15.9 4.46093 16.58C4.70093 17.25 5.27093 17.77 6.01093 18.02C7.95093 18.68 9.99093 19 12.0309 19C14.0709 19 16.1109 18.68 18.0509 18.03C18.7509 17.8 19.2909 17.27 19.5509 16.58C19.8109 15.89 19.7409 15.13 19.3509 14.49Z"
        fill="#292D32" />
    <path
        d="M14.8409 20.01C14.4209 21.17 13.3109 22 12.0109 22C11.2209 22 10.4409 21.68 9.89092 21.11C9.57092 20.81 9.33092 20.41 9.19092 20C9.32092 20.02 9.45092 20.03 9.59092 20.05C9.82092 20.08 10.0609 20.11 10.3009 20.13C10.8709 20.18 11.4509 20.21 12.0309 20.21C12.6009 20.21 13.1709 20.18 13.7309 20.13C13.9409 20.11 14.1509 20.1 14.3509 20.07C14.5109 20.05 14.6709 20.03 14.8409 20.01Z"
        fill="#292D32" />
    <circle cx="17.011" cy="6" r="3" fill="#FF6161" />
</svg>