<svg width="24" height="24" viewBox="0 0 24 24" fill="none" xmlns="http://www.w3.org/2000/svg">
    <path
        d="M17.8924 4.35695C17.5217 4.35643 17.1556 4.43911 16.821 4.59891V3.99983C16.8213 3.40401 16.6087 2.8277 16.2216 2.37475C15.8345 1.92181 15.2983 1.62201 14.7098 1.52939C14.1212 1.43677 13.5189 1.55741 13.0114 1.86958C12.5039 2.18175 12.1246 2.66491 11.9418 3.23201C11.5611 3.02552 11.1333 2.92147 10.7003 2.93006C10.2673 2.93866 9.84395 3.05959 9.47175 3.28102C9.09954 3.50245 8.79125 3.81678 8.57708 4.19321C8.36291 4.56963 8.25021 4.99524 8.25001 5.42833V11.1423L7.90896 10.595C7.57769 10.0234 7.03358 9.60609 6.39555 9.43441C5.75752 9.26273 5.07748 9.35061 4.50406 9.67885C3.93064 10.0071 3.51048 10.549 3.33543 11.1861C3.16038 11.8232 3.24467 12.5037 3.56988 13.0789C4.99838 16.0939 6.15279 18.2322 7.47326 19.5687C8.80713 20.9222 10.3213 21.499 12.5355 21.499C14.6185 21.4966 16.6156 20.6681 18.0885 19.1952C19.5614 17.7223 20.3899 15.7252 20.3923 13.6422V6.85683C20.3923 6.19382 20.1289 5.55797 19.6601 5.08915C19.1913 4.62033 18.5554 4.35695 17.8924 4.35695ZM18.9638 13.6422C18.9619 15.3465 18.284 16.9805 17.0789 18.1856C15.8738 19.3907 14.2398 20.0686 12.5355 20.0705C10.716 20.0705 9.5437 19.6348 8.48839 18.5661C7.3072 17.3688 6.21975 15.3386 4.84839 12.4441C4.84035 12.4264 4.83141 12.4091 4.8216 12.3923C4.67953 12.1461 4.64105 11.8536 4.71464 11.5791C4.78823 11.3046 4.96785 11.0706 5.21399 10.9285C5.46014 10.7864 5.75264 10.748 6.02715 10.8216C6.30166 10.8951 6.53569 11.0748 6.67776 11.3209C6.6814 11.3281 6.68558 11.3349 6.69026 11.3414L8.35715 14.0199C8.43903 14.152 8.56179 14.2538 8.70678 14.3099C8.85177 14.3659 9.01109 14.3731 9.16055 14.3304C9.31001 14.2877 9.44145 14.1974 9.53493 14.0732C9.62841 13.949 9.67882 13.7977 9.67851 13.6422V5.42833C9.67851 5.14418 9.79139 4.87168 9.99231 4.67075C10.1932 4.46983 10.4657 4.35695 10.7499 4.35695C11.034 4.35695 11.3065 4.46983 11.5075 4.67075C11.7084 4.87168 11.8213 5.14418 11.8213 5.42833V10.7852C11.8213 10.9746 11.8965 11.1563 12.0305 11.2903C12.1644 11.4242 12.3461 11.4995 12.5355 11.4995C12.725 11.4995 12.9066 11.4242 13.0406 11.2903C13.1745 11.1563 13.2498 10.9746 13.2498 10.7852V3.99983C13.2498 3.71568 13.3627 3.44317 13.5636 3.24225C13.7645 3.04133 14.037 2.92845 14.3212 2.92845C14.6053 2.92845 14.8778 3.04133 15.0787 3.24225C15.2796 3.44317 15.3925 3.71568 15.3925 3.99983V10.7852C15.3925 10.9746 15.4678 11.1563 15.6017 11.2903C15.7357 11.4242 15.9173 11.4995 16.1068 11.4995C16.2962 11.4995 16.4779 11.4242 16.6118 11.2903C16.7458 11.1563 16.821 10.9746 16.821 10.7852V6.85683C16.821 6.57269 16.9339 6.30018 17.1348 6.09926C17.3358 5.89833 17.6083 5.78546 17.8924 5.78546C18.1766 5.78546 18.4491 5.89833 18.65 6.09926C18.8509 6.30018 18.9638 6.57269 18.9638 6.85683V13.6422Z"
        fill="#FF6161" />
</svg>