<svg width="24" height="24" viewBox="0 0 24 24" fill="none" xmlns="http://www.w3.org/2000/svg">
    <path
        d="M8.1057 3C8.27279 3 8.43303 3.06637 8.55118 3.18452C8.66933 3.30267 8.7357 3.46291 8.7357 3.63V4.8081H15.501V3.6381C15.501 3.47101 15.5674 3.31077 15.6855 3.19262C15.8037 3.07447 15.9639 3.0081 16.131 3.0081C16.2981 3.0081 16.4583 3.07447 16.5765 3.19262C16.6946 3.31077 16.761 3.47101 16.761 3.6381V4.8081H19.2C19.6772 4.8081 20.1349 4.99762 20.4725 5.33499C20.81 5.67236 20.9998 6.12997 21 6.6072V19.2009C20.9998 19.6781 20.81 20.1357 20.4725 20.4731C20.1349 20.8105 19.6772 21 19.2 21H4.8C4.32277 21 3.86507 20.8105 3.52753 20.4731C3.18999 20.1357 3.00024 19.6781 3 19.2009V6.6072C3.00024 6.12997 3.18999 5.67236 3.52753 5.33499C3.86507 4.99762 4.32277 4.8081 4.8 4.8081H7.4757V3.6291C7.47594 3.46217 7.54242 3.30216 7.66054 3.1842C7.77866 3.06625 7.93877 3 8.1057 3ZM4.26 9.9678V19.2009C4.26 19.2718 4.27397 19.342 4.30111 19.4075C4.32824 19.4731 4.36802 19.5326 4.41816 19.5827C4.46831 19.6329 4.52784 19.6727 4.59335 19.6998C4.65887 19.7269 4.72909 19.7409 4.8 19.7409H19.2C19.2709 19.7409 19.3411 19.7269 19.4066 19.6998C19.4722 19.6727 19.5317 19.6329 19.5818 19.5827C19.632 19.5326 19.6718 19.4731 19.6989 19.4075C19.726 19.342 19.74 19.2718 19.74 19.2009V9.9804L4.26 9.9678ZM9.0003 16.1571V17.6565H7.5V16.1571H9.0003ZM12.7497 16.1571V17.6565H11.2503V16.1571H12.7497ZM16.5 16.1571V17.6565H14.9997V16.1571H16.5ZM9.0003 12.5778V14.0772H7.5V12.5778H9.0003ZM12.7497 12.5778V14.0772H11.2503V12.5778H12.7497ZM16.5 12.5778V14.0772H14.9997V12.5778H16.5ZM7.4757 6.0672H4.8C4.72909 6.0672 4.65887 6.08117 4.59335 6.1083C4.52784 6.13544 4.46831 6.17522 4.41816 6.22536C4.36802 6.27551 4.32824 6.33504 4.30111 6.40055C4.27397 6.46607 4.26 6.53629 4.26 6.6072V8.7087L19.74 8.7213V6.6072C19.74 6.53629 19.726 6.46607 19.6989 6.40055C19.6718 6.33504 19.632 6.27551 19.5818 6.22536C19.5317 6.17522 19.4722 6.13544 19.4066 6.1083C19.3411 6.08117 19.2709 6.0672 19.2 6.0672H16.761V6.9033C16.761 7.07039 16.6946 7.23063 16.5765 7.34878C16.4583 7.46693 16.2981 7.5333 16.131 7.5333C15.9639 7.5333 15.8037 7.46693 15.6855 7.34878C15.5674 7.23063 15.501 7.07039 15.501 6.9033V6.0672H8.7357V6.8952C8.7357 7.06229 8.66933 7.22253 8.55118 7.34068C8.43303 7.45883 8.27279 7.5252 8.1057 7.5252C7.93861 7.5252 7.77837 7.45883 7.66022 7.34068C7.54207 7.22253 7.4757 7.06229 7.4757 6.8952V6.0672Z"
        fill="#454545" />
</svg>