<svg width="15" height="15" viewBox="0 0 15 15" fill="none" xmlns="http://www.w3.org/2000/svg">
    <path
        d="M10.9153 0.699821C11.3642 0.251147 11.9729 -0.000849586 12.6075 -0.000732381C13.2421 -0.000615176 13.8507 0.251606 14.2994 0.700446C14.7481 1.14929 15.0001 1.75798 15 2.39262C14.9998 3.02725 14.7476 3.63585 14.2988 4.08453L13.3826 5.00195L9.99791 1.61724L10.9153 0.701071V0.699821ZM9.11549 2.50091L1.67113 9.94276C1.44517 10.1689 1.27487 10.4445 1.17368 10.7477L0.031278 14.1761C-0.00553063 14.2862 -0.0109532 14.4044 0.015618 14.5174C0.0421892 14.6304 0.0997042 14.7337 0.181717 14.8159C0.263729 14.898 0.366998 14.9557 0.479948 14.9824C0.592898 15.0092 0.711067 15.004 0.821209 14.9673L4.24966 13.8237C4.55338 13.7237 4.82836 13.5524 5.05459 13.3262L12.4989 5.88562L9.11423 2.49966L9.11549 2.50091Z"
        fill="#666666" />
</svg>