<svg width="24" height="24" viewBox="0 0 24 24" fill="none" xmlns="http://www.w3.org/2000/svg">
    <path
        d="M21.1426 6.85714H8.57122M6.28551 6.85714H2.85693M21.1426 18.2857H8.57122M6.28551 18.2857H2.85693M15.4284 12.5714H2.85693M21.1426 12.5714H17.7141M7.42836 4.57143C7.73147 4.57143 8.02216 4.69183 8.23648 4.90616C8.45081 5.12049 8.57122 5.41118 8.57122 5.71428V8C8.57122 8.3031 8.45081 8.59379 8.23648 8.80812C8.02216 9.02245 7.73147 9.14286 7.42836 9.14286C7.12526 9.14286 6.83457 9.02245 6.62024 8.80812C6.40591 8.59379 6.28551 8.3031 6.28551 8V5.71428C6.28551 5.41118 6.40591 5.12049 6.62024 4.90616C6.83457 4.69183 7.12526 4.57143 7.42836 4.57143ZM7.42836 16C7.73147 16 8.02216 16.1204 8.23648 16.3347C8.45081 16.5491 8.57122 16.8398 8.57122 17.1429V19.4286C8.57122 19.7317 8.45081 20.0224 8.23648 20.2367C8.02216 20.451 7.73147 20.5714 7.42836 20.5714C7.12526 20.5714 6.83457 20.451 6.62024 20.2367C6.40591 20.0224 6.28551 19.7317 6.28551 19.4286V17.1429C6.28551 16.8398 6.40591 16.5491 6.62024 16.3347C6.83457 16.1204 7.12526 16 7.42836 16ZM16.5712 10.2857C16.8743 10.2857 17.165 10.4061 17.3793 10.6204C17.5937 10.8348 17.7141 11.1255 17.7141 11.4286V13.7143C17.7141 14.0174 17.5937 14.3081 17.3793 14.5224C17.165 14.7367 16.8743 14.8571 16.5712 14.8571C16.2681 14.8571 15.9774 14.7367 15.7631 14.5224C15.5488 14.3081 15.4284 14.0174 15.4284 13.7143V11.4286C15.4284 11.1255 15.5488 10.8348 15.7631 10.6204C15.9774 10.4061 16.2681 10.2857 16.5712 10.2857Z"
        stroke="#242424" stroke-width="1.14286" stroke-linecap="round" stroke-linejoin="round" />
</svg>