<svg width="20" height="20" viewBox="0 0 20 20" fill="none" xmlns="http://www.w3.org/2000/svg">
    <path
        d="M10.0001 6.87578C8.2798 6.87578 6.87589 8.27969 6.87589 10C6.87589 11.7203 8.2798 13.1242 10.0001 13.1242C11.7204 13.1242 13.1243 11.7203 13.1243 10C13.1243 8.27969 11.7204 6.87578 10.0001 6.87578ZM19.3704 10C19.3704 8.70625 19.3821 7.42422 19.3095 6.13281C19.2368 4.63281 18.8946 3.30156 17.7978 2.20469C16.6985 1.10547 15.3696 0.765623 13.8696 0.692967C12.5759 0.620311 11.2939 0.63203 10.0025 0.63203C8.7087 0.63203 7.42667 0.620311 6.13527 0.692967C4.63527 0.765623 3.30402 1.10781 2.20714 2.20469C1.10792 3.3039 0.76808 4.63281 0.695424 6.13281C0.622767 7.42656 0.634486 8.70859 0.634486 10C0.634486 11.2914 0.622767 12.5758 0.695424 13.8672C0.76808 15.3672 1.11027 16.6984 2.20714 17.7953C3.30636 18.8945 4.63527 19.2344 6.13527 19.307C7.42902 19.3797 8.71105 19.368 10.0025 19.368C11.2962 19.368 12.5782 19.3797 13.8696 19.307C15.3696 19.2344 16.7009 18.8922 17.7978 17.7953C18.897 16.6961 19.2368 15.3672 19.3095 13.8672C19.3845 12.5758 19.3704 11.2937 19.3704 10ZM10.0001 14.807C7.33995 14.807 5.19308 12.6602 5.19308 10C5.19308 7.33984 7.33995 5.19297 10.0001 5.19297C12.6603 5.19297 14.8071 7.33984 14.8071 10C14.8071 12.6602 12.6603 14.807 10.0001 14.807ZM15.004 6.11875C14.3829 6.11875 13.8814 5.61719 13.8814 4.99609C13.8814 4.375 14.3829 3.87344 15.004 3.87344C15.6251 3.87344 16.1267 4.375 16.1267 4.99609C16.1269 5.14357 16.0979 5.28964 16.0416 5.42593C15.9852 5.56222 15.9026 5.68606 15.7983 5.79034C15.694 5.89463 15.5701 5.97731 15.4339 6.03367C15.2976 6.09002 15.1515 6.11893 15.004 6.11875Z"
        fill="black" />
</svg>