<svg width="24" height="25" viewBox="0 0 24 25" fill="none" xmlns="http://www.w3.org/2000/svg">
    <path
        d="M18.9999 11.5H7.82992L12.7099 6.62004C13.0999 6.23004 13.0999 5.59004 12.7099 5.20004C12.6174 5.10733 12.5075 5.03379 12.3865 4.9836C12.2656 4.93342 12.1359 4.90759 12.0049 4.90759C11.874 4.90759 11.7443 4.93342 11.6233 4.9836C11.5023 5.03379 11.3924 5.10733 11.2999 5.20004L4.70992 11.79C4.61722 11.8826 4.54367 11.9924 4.49349 12.1134C4.44331 12.2344 4.41748 12.3641 4.41748 12.495C4.41748 12.626 4.44331 12.7557 4.49349 12.8767C4.54367 12.9976 4.61722 13.1075 4.70992 13.2L11.2999 19.79C11.3925 19.8826 11.5024 19.9561 11.6234 20.0062C11.7443 20.0563 11.874 20.0821 12.0049 20.0821C12.1359 20.0821 12.2655 20.0563 12.3865 20.0062C12.5074 19.9561 12.6173 19.8826 12.7099 19.79C12.8025 19.6975 12.8759 19.5875 12.9261 19.4666C12.9762 19.3456 13.0019 19.216 13.0019 19.085C13.0019 18.9541 12.9762 18.8245 12.9261 18.7035C12.8759 18.5825 12.8025 18.4726 12.7099 18.38L7.82992 13.5H18.9999C19.5499 13.5 19.9999 13.05 19.9999 12.5C19.9999 11.95 19.5499 11.5 18.9999 11.5Z"
        fill="black" />
</svg>