<?xml version="1.0" encoding="UTF-8"?>
<svg id="Layer_1" data-name="Layer 1" xmlns="http://www.w3.org/2000/svg" viewBox="0 0 1497.14 400.8">
  <defs>
    <style>
      .cls-1 {
        fill: orange;
      }

      .cls-2 {
        fill: #9b74ba;
      }

      .cls-3 {
        fill: #5c0099;
      }

      .cls-4 {
        fill: #2e2733;
      }
    </style>
  </defs>
  <g>
    <path class="cls-4" d="m319.22,110.23h52.37c-8.87-15.2-12.67-37.17-12.67-37.17C350.05,18.58,388.48,0,434.94,0c18.58,0,41.39,4.65,57.86,13.52v39.28c-9.71-5.07-23.65-8.45-35.9-8.45h-3.38c-48.57,2.53-37.16,65.89-37.16,65.89h62.08v44.77h-62.08v162.6h-59.13v-162.6h-38.01v-44.77Z"/>
    <path class="cls-4" d="m505.9,4.65h60.82v312.95h-60.82V4.65Z"/>
    <path class="cls-4" d="m698.48,103.89c60.82,0,116.57,40.97,116.57,109.81s-55.75,110.23-116.57,110.23-116.99-40.96-116.99-110.23,56.17-109.81,116.99-109.81Zm-58.7,109.81c0,44.77,27.45,68.84,58.7,68.84s58.71-24.07,58.71-68.84-27.87-68.42-58.71-68.42-58.7,24.07-58.7,68.42Z"/>
    <path class="cls-4" d="m829.84,110.23h38.01l13.51,63.77h3.38c8.87-59.97,41.81-70.95,73.49-70.95,5.49,0,10.98.42,16.05.84v59.55c-5.07-3.8-18.16-8.02-32.52-8.02-24.5,0-52.79,12.25-52.79,59.13v103.05h-59.13V110.23Z"/>
    <polygon class="cls-4" points="981.46 157.95 981.46 110.23 1065.09 110.23 1065.09 317.6 1004.27 317.6 1004.27 157.95 981.46 157.95"/>
    <path class="cls-4" d="m1025.39,13.94c20.27,0,36.74,16.47,36.74,36.32s-16.47,36.74-36.74,36.74-36.32-16.47-36.32-36.74,16.47-36.32,36.32-36.32Z"/>
    <path class="cls-4" d="m1082.4,110.23h52.37c-8.87-15.2-12.67-37.17-12.67-37.17-8.87-54.48,29.56-73.07,76.02-73.07,18.58,0,41.39,4.65,57.86,13.52v39.28c-9.71-5.07-23.65-8.45-35.9-8.45h-3.38c-48.57,2.53-37.17,65.89-37.17,65.89h62.08v44.77h-62.08v162.6h-59.13v-162.6h-38.01v-44.77Z"/>
    <path class="cls-4" d="m1236.14,330.69h22.38c5.49,18.58,23.65,37.59,50.68,37.59,28.72,0,50.68-24.07,57.44-50.68h-37.17l-75.18-207.37h60.82l55.33,166.4h9.29l56.59-166.4h60.82l-76.87,205.68c-18.16,48.57-53.64,84.89-107.7,84.89-39.28-2.96-72.22-32.52-76.44-70.11Z"/>
  </g>
  <path class="cls-2" d="m218.95,107.53v118.89c0,37.57-23.4,69.64-56.43,82.49-9.92,3.86-20.77,6.01-32.1,6.01h-41.93c-11.33,0-22.15-2.15-32.1-6.01C23.4,296.05,0,263.99,0,226.42v-118.89l109.48,135.66,109.48-135.66Z"/>
  <path class="cls-3" d="m109.48,243.18l-27.83,34.46c-17.76,21.99-52.03,20.61-67.43-3.1-8.99-13.85-14.22-30.37-14.22-48.13v-118.89l109.48,135.66Z"/>
  <rect class="cls-1" x="102.24" y="71.74" width="14.48" height="65.77" rx="7.24" ry="7.24"/>
  <rect class="cls-1" x="58.63" y="99.85" width="14.48" height="62.92" rx="7.24" ry="7.24" transform="translate(199.67 191.95) rotate(141.03)"/>
  <rect class="cls-1" x="145.84" y="99.85" width="14.48" height="62.92" rx="7.24" ry="7.24" transform="translate(116.66 -67.06) rotate(38.97)"/>
</svg>