<svg width="25" height="25" viewBox="0 0 25 25" fill="none" xmlns="http://www.w3.org/2000/svg">
    <path
        d="M20.4272 11.7261H4.3272C3.80253 11.7261 3.3772 12.1514 3.3772 12.6761V12.7761C3.3772 13.3007 3.80253 13.7261 4.3272 13.7261H20.4272C20.9519 13.7261 21.3772 13.3007 21.3772 12.7761V12.6761C21.3772 12.1514 20.9519 11.7261 20.4272 11.7261Z"
        fill="black" />
    <path
        d="M20.4272 16.7261H4.3272C3.80253 16.7261 3.3772 17.1514 3.3772 17.6761V17.7761C3.3772 18.3007 3.80253 18.7261 4.3272 18.7261H20.4272C20.9519 18.7261 21.3772 18.3007 21.3772 17.7761V17.6761C21.3772 17.1514 20.9519 16.7261 20.4272 16.7261Z"
        fill="black" />
    <path
        d="M20.4272 6.72607H4.3272C3.80253 6.72607 3.3772 7.1514 3.3772 7.67607V7.77607C3.3772 8.30075 3.80253 8.72607 4.3272 8.72607H20.4272C20.9519 8.72607 21.3772 8.30075 21.3772 7.77607V7.67607C21.3772 7.1514 20.9519 6.72607 20.4272 6.72607Z"
        fill="black" />
</svg>