<svg width="24" height="14" viewBox="0 0 24 14" fill="none" xmlns="http://www.w3.org/2000/svg">
    <path
        d="M15.75 7C15.75 7.74168 15.5301 8.4667 15.118 9.08339C14.706 9.70007 14.1203 10.1807 13.4351 10.4645C12.7498 10.7484 11.9958 10.8226 11.2684 10.6779C10.541 10.5333 9.8728 10.1761 9.34835 9.65165C8.8239 9.1272 8.46675 8.45902 8.32205 7.73159C8.17736 7.00416 8.25162 6.25016 8.53545 5.56494C8.81928 4.87971 9.29993 4.29404 9.91661 3.88199C10.5333 3.46993 11.2583 3.25 12 3.25C12.9946 3.25 13.9484 3.64509 14.6517 4.34835C15.3549 5.05161 15.75 6.00544 15.75 7ZM23.25 1V13C23.25 13.1989 23.171 13.3897 23.0303 13.5303C22.8897 13.671 22.6989 13.75 22.5 13.75H1.5C1.30109 13.75 1.11032 13.671 0.96967 13.5303C0.829018 13.3897 0.75 13.1989 0.75 13V1C0.75 0.801088 0.829018 0.610322 0.96967 0.46967C1.11032 0.329018 1.30109 0.25 1.5 0.25H22.5C22.6989 0.25 22.8897 0.329018 23.0303 0.46967C23.171 0.610322 23.25 0.801088 23.25 1ZM21.75 5.34531C20.8984 5.0935 20.1233 4.63263 19.4953 4.00467C18.8674 3.37671 18.4065 2.60162 18.1547 1.75H5.84531C5.5935 2.60162 5.13263 3.37671 4.50467 4.00467C3.87671 4.63263 3.10162 5.0935 2.25 5.34531V8.65469C3.10162 8.90649 3.87671 9.36737 4.50467 9.99533C5.13263 10.6233 5.5935 11.3984 5.84531 12.25H18.1547C18.4065 11.3984 18.8674 10.6233 19.4953 9.99533C20.1233 9.36737 20.8984 8.90649 21.75 8.65469V5.34531Z"
        fill="#45D469" />
</svg>