<svg width="25" height="24" viewBox="0 0 25 24" fill="none" xmlns="http://www.w3.org/2000/svg">
    <path
        d="M12.011 22.5C6.22099 22.5 1.51099 17.79 1.51099 12C1.51099 6.21 6.22099 1.5 12.011 1.5C17.801 1.5 22.511 6.21 22.511 12C22.511 17.79 17.801 22.5 12.011 22.5ZM12.011 3C7.04599 3 3.01099 7.035 3.01099 12C3.01099 16.965 7.04599 21 12.011 21C16.976 21 21.011 16.965 21.011 12C21.011 7.035 16.976 3 12.011 3Z"
        fill="white" />
    <path
        d="M12.011 17.25C11.591 17.25 11.261 16.92 11.261 16.5V7.5C11.261 7.08 11.591 6.75 12.011 6.75C12.431 6.75 12.761 7.08 12.761 7.5V16.5C12.761 16.92 12.431 17.25 12.011 17.25Z"
        fill="white" />
    <path
        d="M16.511 12.75H7.51099C7.09099 12.75 6.76099 12.42 6.76099 12C6.76099 11.58 7.09099 11.25 7.51099 11.25H16.511C16.931 11.25 17.261 11.58 17.261 12C17.261 12.42 16.931 12.75 16.511 12.75Z"
        fill="white" />
</svg>