<svg width="24" height="24" viewBox="0 0 24 24" fill="none" xmlns="http://www.w3.org/2000/svg">
    <path
        d="M12 3C8.1675 3 4.96275 5.37 3.65625 8.71875L5.03925 9.28125C6.132 6.48 8.7825 4.5 12 4.5C14.43 4.5 16.6005 5.6925 17.9535 7.5H15V9H20.25V3.75H18.75V6.0705C17.9098 5.10585 16.8726 4.3326 15.7081 3.80292C14.5437 3.27323 13.2792 2.99944 12 3ZM18.96 14.7188C17.868 17.52 15.2175 19.5 12 19.5C9.543 19.5 7.38225 18.291 6.0225 16.5H9V15H3.75V20.25H5.25V17.9295C6.8925 19.7895 9.29625 21 12 21C15.8325 21 19.0372 18.63 20.3438 15.2813L18.96 14.7188Z"
        fill="#242424" />
</svg>