<svg width="19" height="18" viewBox="0 0 19 18" fill="none" xmlns="http://www.w3.org/2000/svg">
    <path fill-rule="evenodd" clip-rule="evenodd"
        d="M2.01098 7C2.01098 5.67392 2.53776 4.40215 3.47544 3.46447C4.41312 2.52678 5.68489 2 7.01098 2C8.33706 2 9.60883 2.52678 10.5465 3.46447C11.4842 4.40215 12.011 5.67392 12.011 7C12.011 8.32608 11.4842 9.59785 10.5465 10.5355C9.60883 11.4732 8.33706 12 7.01098 12C5.68489 12 4.41312 11.4732 3.47544 10.5355C2.53776 9.59785 2.01098 8.32608 2.01098 7ZM7.01098 2.20582e-07C5.90224 2.1098e-06 4.80935 0.263375 3.82233 0.768432C2.8353 1.27349 1.98236 2.00578 1.33375 2.90501C0.685138 3.80423 0.259406 4.84467 0.0916123 5.94064C-0.0761817 7.03661 0.018762 8.15676 0.368625 9.20885C0.718488 10.2609 1.31326 11.2149 2.10397 11.9921C2.89468 12.7693 3.8587 13.3476 4.91665 13.6794C5.9746 14.0111 7.09622 14.0868 8.18915 13.9001C9.28207 13.7135 10.315 13.27 11.203 12.606L16.303 17.707C16.4905 17.8946 16.7449 18.0001 17.0101 18.0002C17.2754 18.0003 17.5298 17.895 17.7175 17.7075C17.9051 17.52 18.0106 17.2656 18.0107 17.0004C18.0108 16.7351 17.9055 16.4806 17.718 16.293L12.618 11.193C13.3963 10.1525 13.8697 8.91592 13.9851 7.62167C14.1005 6.32741 13.8533 5.02658 13.2714 3.86481C12.6894 2.70304 11.7955 1.72618 10.6899 1.0436C9.5842 0.361026 8.31037 -0.000325925 7.01098 2.20582e-07Z"
        fill="#555555" />
</svg>