<svg width="25" height="24" viewBox="0 0 25 24" fill="none" xmlns="http://www.w3.org/2000/svg">
    <mask id="mask0_760_8539" style="mask-type:alpha" maskUnits="userSpaceOnUse" x="0" y="0" width="25" height="24">
        <rect x="0.5" width="24" height="24" fill="#D9D9D9" />
    </mask>
    <g mask="url(#mask0_760_8539)">
        <path
            d="M21.1275 4H3.87255C3.50853 4 3.15941 4.14461 2.90201 4.40201C2.64461 4.65941 2.5 5.00853 2.5 5.37255V19.4902C2.5 19.8542 2.64461 20.2033 2.90201 20.4607C3.15941 20.7181 3.50853 20.8627 3.87255 20.8627H21.1275C21.4915 20.8627 21.8406 20.7181 22.098 20.4607C22.3554 20.2033 22.5 19.8542 22.5 19.4902V5.37255C22.5 5.00853 22.3554 4.65941 22.098 4.40201C21.8406 4.14461 21.4915 4 21.1275 4ZM3.87255 5.17647H21.1275C21.1795 5.17647 21.2293 5.19713 21.2661 5.2339C21.3029 5.27067 21.3235 5.32055 21.3235 5.37255V16.5L18.1765 13.3529C17.9178 13.0979 17.5691 12.9549 17.2059 12.9549C16.8426 12.9549 16.494 13.0979 16.2353 13.3529L14.2059 15.3824C14.1884 15.4014 14.1672 15.4166 14.1436 15.4269C14.12 15.4373 14.0944 15.4427 14.0686 15.4427C14.0428 15.4427 14.0173 15.4373 13.9937 15.4269C13.97 15.4166 13.9488 15.4014 13.9314 15.3824L9.54902 11C9.29036 10.7449 8.94169 10.602 8.57843 10.602C8.21517 10.602 7.8665 10.7449 7.60784 11L3.67647 14.9314V5.37255C3.67647 5.32055 3.69713 5.27067 3.7339 5.2339C3.77067 5.19713 3.82055 5.17647 3.87255 5.17647ZM21.1275 19.6863H3.87255C3.82055 19.6863 3.77067 19.6656 3.7339 19.6288C3.69713 19.5921 3.67647 19.5422 3.67647 19.4902V16.598L8.44118 11.8333C8.45863 11.8143 8.47984 11.7991 8.50347 11.7887C8.52709 11.7784 8.55262 11.773 8.57843 11.773C8.60424 11.773 8.62977 11.7784 8.6534 11.7887C8.67703 11.7991 8.69824 11.8143 8.71569 11.8333L13.098 16.2157C13.3567 16.4707 13.7054 16.6137 14.0686 16.6137C14.4319 16.6137 14.7806 16.4707 15.0392 16.2157L17.0686 14.1863C17.0861 14.1673 17.1073 14.1521 17.1309 14.1417C17.1545 14.1313 17.1801 14.1259 17.2059 14.1259C17.2317 14.1259 17.2572 14.1313 17.2808 14.1417C17.3045 14.1521 17.3257 14.1673 17.3431 14.1863L21.3235 18.1667V19.4902C21.3235 19.5422 21.3029 19.5921 21.2661 19.6288C21.2293 19.6656 21.1795 19.6863 21.1275 19.6863ZM14.549 10.3824C14.4577 10.2911 14.3855 10.1825 14.3367 10.063C14.2879 9.94344 14.2634 9.81538 14.2647 9.68627C14.2647 9.42626 14.368 9.17689 14.5519 8.99303C14.7357 8.80917 14.9851 8.70588 15.2451 8.70588C15.5051 8.70588 15.7545 8.80917 15.9383 8.99303C16.1222 9.17689 16.2255 9.42626 16.2255 9.68627C16.2255 9.94629 16.1222 10.1957 15.9383 10.3795C15.7545 10.5634 15.5051 10.6667 15.2451 10.6667C15.116 10.668 14.9879 10.6435 14.8684 10.5947C14.7489 10.5458 14.6403 10.4737 14.549 10.3824Z"
            fill="#4A69E2" />
    </g>
</svg>