<svg width="20" height="20" viewBox="0 0 20 20" fill="none" xmlns="http://www.w3.org/2000/svg">
    <path
        d="M16.276 8.04169L12.0791 7.43174L10.203 3.62822C10.1517 3.52408 10.0674 3.43978 9.96327 3.38854C9.7021 3.25961 9.38473 3.36705 9.25414 3.62822L7.378 7.43174L3.18108 8.04169C3.06537 8.05822 2.95958 8.11277 2.87858 8.19542C2.78066 8.29606 2.7267 8.43146 2.72856 8.57187C2.73042 8.71228 2.78795 8.8462 2.8885 8.94422L5.92503 11.9047L5.20764 16.0851C5.19081 16.1824 5.20157 16.2824 5.2387 16.3738C5.27582 16.4653 5.33783 16.5445 5.41768 16.6025C5.49753 16.6605 5.59203 16.6949 5.69047 16.7019C5.78891 16.709 5.88735 16.6882 5.97462 16.6422L9.72855 14.6685L13.4825 16.6422C13.585 16.6967 13.704 16.7149 13.818 16.6951C14.1057 16.6455 14.2991 16.3727 14.2495 16.0851L13.5321 11.9047L16.5686 8.94422C16.6512 8.86322 16.7058 8.75743 16.7223 8.64172C16.767 8.35245 16.5653 8.08467 16.276 8.04169Z"
        fill="#EEEEEE" />
</svg>