<svg width="12" height="17" viewBox="0 0 12 17" fill="none" xmlns="http://www.w3.org/2000/svg">
    <path
        d="M8 1C8 0.867392 7.94732 0.740215 7.85355 0.646447C7.75979 0.552678 7.63261 0.5 7.5 0.5H4.5C4.36739 0.5 4.24021 0.552678 4.14645 0.646447C4.05268 0.740215 4 0.867392 4 1C4 1.13261 3.94732 1.25979 3.85355 1.35355C3.75979 1.44732 3.63261 1.5 3.5 1.5C3.36739 1.5 3.24021 1.55268 3.14645 1.64645C3.05268 1.74021 3 1.86739 3 2V2.5C3 2.63261 3.05268 2.75979 3.14645 2.85355C3.24021 2.94732 3.36739 3 3.5 3H8.5C8.63261 3 8.75979 2.94732 8.85355 2.85355C8.94732 2.75979 9 2.63261 9 2.5V2C9 1.86739 8.94732 1.74021 8.85355 1.64645C8.75979 1.55268 8.63261 1.5 8.5 1.5C8.36739 1.5 8.24021 1.44732 8.14645 1.35355C8.05268 1.25979 8 1.13261 8 1Z"
        fill="#5C0099" />
    <path
        d="M2.085 1.5H1.5C1.10218 1.5 0.720644 1.65804 0.43934 1.93934C0.158035 2.22064 0 2.60218 0 3V15C0 15.3978 0.158035 15.7794 0.43934 16.0607C0.720644 16.342 1.10218 16.5 1.5 16.5H10.5C10.8978 16.5 11.2794 16.342 11.5607 16.0607C11.842 15.7794 12 15.3978 12 15V3C12 2.60218 11.842 2.22064 11.5607 1.93934C11.2794 1.65804 10.8978 1.5 10.5 1.5H9.915C9.97 1.656 10 1.825 10 2V2.5C10 2.89782 9.84196 3.27936 9.56066 3.56066C9.27936 3.84196 8.89782 4 8.5 4H3.5C3.10218 4 2.72064 3.84196 2.43934 3.56066C2.15804 3.27936 2 2.89782 2 2.5V2C2 1.825 2.03 1.656 2.085 1.5ZM8.854 8.354L5.854 11.354C5.80755 11.4006 5.75238 11.4375 5.69163 11.4627C5.63089 11.4879 5.56577 11.5009 5.5 11.5009C5.43423 11.5009 5.36911 11.4879 5.30837 11.4627C5.24762 11.4375 5.19245 11.4006 5.146 11.354L3.646 9.854C3.59951 9.80751 3.56264 9.75232 3.53748 9.69158C3.51232 9.63084 3.49937 9.56574 3.49937 9.5C3.49937 9.43426 3.51232 9.36916 3.53748 9.30842C3.56264 9.24768 3.59951 9.19249 3.646 9.146C3.73989 9.05211 3.86722 8.99937 4 8.99937C4.06574 8.99937 4.13084 9.01232 4.19158 9.03748C4.25232 9.06264 4.30751 9.09951 4.354 9.146L5.5 10.293L8.146 7.646C8.23989 7.55211 8.36722 7.49937 8.5 7.49937C8.63278 7.49937 8.76011 7.55211 8.854 7.646C8.94789 7.73989 9.00063 7.86722 9.00063 8C9.00063 8.13278 8.94789 8.26011 8.854 8.354Z"
        fill="#5C0099" />
</svg>