<svg width="24" height="24" viewBox="0 0 24 24" fill="none" xmlns="http://www.w3.org/2000/svg">
    <path
        d="M20.6678 6.015H12.3953L11.1061 2H3.33279C2.60029 2 2.00195 2.59917 2.00195 3.3325V16.895C2.00195 17.6267 2.60195 18.2258 3.33279 18.2258H11.6661L12.8936 22H20.667C21.3986 22 21.9978 21.4108 21.9978 20.69V7.325C21.9978 6.60417 21.3986 6.015 20.6678 6.015ZM7.61779 13.2483C5.89279 13.2483 4.49279 11.8483 4.49279 10.1233C4.49279 8.39833 5.89279 6.99833 7.61779 6.99833C8.46112 6.99833 9.16779 7.31083 9.71112 7.81167L8.88612 8.605C8.54154 8.2859 8.08738 8.11164 7.61779 8.11833C6.53029 8.11833 5.64862 9.01833 5.64862 10.1258C5.64862 11.2333 6.53029 12.1333 7.61695 12.1333C8.87279 12.1333 9.39195 11.2333 9.44195 10.6267L7.61862 10.625V9.555H10.5436C10.5853 9.74667 10.6186 9.93583 10.6186 10.1917C10.6186 11.9808 9.42362 13.2492 7.61695 13.2492L7.61779 13.2483ZM21.582 20.69C21.582 21.1817 21.172 21.5833 20.6678 21.5833H13.272L16.3128 18.225H16.317L15.7003 16.3067L15.7053 16.3025C15.7053 16.3025 16.1786 15.8958 16.7695 15.2692C17.3628 15.9117 18.1278 16.685 19.1178 17.6067L19.7603 16.9633C18.7003 16.0017 17.9236 15.2383 17.352 14.6258C18.1178 13.72 18.8953 12.58 19.0595 11.5367H20.7545V11.5383H20.7561V10.755H16.9795V9.48833H15.7536V10.755H13.917L12.5236 6.41333L12.5286 6.43167H20.6678C21.172 6.43167 21.582 6.83167 21.582 7.325V20.69ZM16.1786 14.5975C15.732 15.0542 15.3928 15.325 15.3928 15.325L15.3861 15.3283L14.1695 11.5383H18.1395C17.8836 12.4417 17.3161 13.295 16.7636 13.9583C15.7836 12.7983 15.7803 12.4217 15.7803 12.4217H14.762C14.762 12.4217 14.8036 12.9875 16.1786 14.5975Z"
        fill="#5C0099" />
</svg>