<svg width="24" height="24" viewBox="0 0 24 24" fill="none" xmlns="http://www.w3.org/2000/svg">
    <path
        d="M19.5345 7.37069H18.2241V6.71552C18.2241 6.19423 18.0171 5.69429 17.6485 5.32569C17.2798 4.95708 16.7799 4.75 16.2586 4.75H4.46552C3.94423 4.75 3.44429 4.95708 3.07569 5.32569C2.70708 5.69429 2.5 6.19423 2.5 6.71552V14.5776C2.5 15.0989 2.70708 15.5988 3.07569 15.9674C3.44429 16.336 3.94423 16.5431 4.46552 16.5431H13.6379V17.1983C13.6379 17.7196 13.845 18.2195 14.2136 18.5881C14.5822 18.9567 15.0822 19.1638 15.6034 19.1638H19.5345C20.0558 19.1638 20.5557 18.9567 20.9243 18.5881C21.2929 18.2195 21.5 17.7196 21.5 17.1983V9.33621C21.5 8.81492 21.2929 8.31498 20.9243 7.94638C20.5557 7.57777 20.0558 7.37069 19.5345 7.37069ZM20.1897 17.1983C20.1897 17.372 20.1206 17.5387 19.9978 17.6616C19.8749 17.7844 19.7082 17.8534 19.5345 17.8534H15.6034C15.4297 17.8534 15.263 17.7844 15.1402 17.6616C15.0173 17.5387 14.9483 17.372 14.9483 17.1983V9.33621C14.9483 9.16244 15.0173 8.9958 15.1402 8.87293C15.263 8.75006 15.4297 8.68103 15.6034 8.68103H19.5345C19.7082 8.68103 19.8749 8.75006 19.9978 8.87293C20.1206 8.9958 20.1897 9.16244 20.1897 9.33621V17.1983ZM12.3276 18.5086C12.3276 18.6824 12.2586 18.849 12.1357 18.9719C12.0128 19.0948 11.8462 19.1638 11.6724 19.1638H8.39655C8.22279 19.1638 8.05614 19.0948 7.93327 18.9719C7.81041 18.849 7.74138 18.6824 7.74138 18.5086C7.74138 18.3349 7.81041 18.1682 7.93327 18.0453C8.05614 17.9225 8.22279 17.8534 8.39655 17.8534H11.6724C11.8462 17.8534 12.0128 17.9225 12.1357 18.0453C12.2586 18.1682 12.3276 18.3349 12.3276 18.5086ZM18.8793 10.6466C18.8793 10.8203 18.8103 10.987 18.6874 11.1098C18.5645 11.2327 18.3979 11.3017 18.2241 11.3017H16.9138C16.74 11.3017 16.5734 11.2327 16.4505 11.1098C16.3276 10.987 16.2586 10.8203 16.2586 10.6466C16.2586 10.4728 16.3276 10.3061 16.4505 10.1833C16.5734 10.0604 16.74 9.99138 16.9138 9.99138H18.2241C18.3979 9.99138 18.5645 10.0604 18.6874 10.1833C18.8103 10.3061 18.8793 10.4728 18.8793 10.6466Z"
        fill="#454545" />
</svg>