<svg width="24" height="24" viewBox="0 0 24 24" fill="none" xmlns="http://www.w3.org/2000/svg">
    <mask id="mask0_1611_1084" style="mask-type:luminance" maskUnits="userSpaceOnUse" x="2" y="2" width="20"
        height="20">
        <path
            d="M12 22C17.5228 22 22 17.5228 22 12C22 6.47715 17.5228 2 12 2C6.47715 2 2 6.47715 2 12C2 17.5228 6.47715 22 12 22Z"
            fill="white" />
    </mask>
    <g mask="url(#mask0_1611_1084)">
        <path
            d="M2 2L2.3125 2.85938L2 3.75781V4.65625L3.25 6.76562L2 8.875V10.125L3.25 12L2 13.875V15.125L3.25 17.2344L2 19.3438V22L2.85938 21.6875L3.75781 22H4.65625L6.76562 20.75L8.875 22H10.125L12 20.75L13.875 22H15.125L17.2344 20.75L19.3438 22H22L21.6875 21.1406L22 20.2422V19.3438L20.75 17.2344L22 15.125V13.875L20.75 12L22 10.125V8.875L20.75 6.76562L22 4.65625V2L21.1406 2.3125L20.2422 2H19.3438L17.2344 3.25L15.125 2H13.875L12 3.25L10.125 2H8.875L6.76562 3.25L4.65625 2H2Z"
            fill="#EEEEEE" />
        <path
            d="M15.125 2V6.21875L19.3438 2H15.125ZM22 4.65625L17.7812 8.875H22V4.65625ZM2 8.875H6.21875L2 4.65625V8.875ZM4.65625 2L8.875 6.21875V2H4.65625ZM8.875 22V17.7812L4.65625 22H8.875ZM2 19.3438L6.21875 15.125H2V19.3438ZM22 15.125H17.7812L22 19.3438V15.125ZM19.3438 22L15.125 17.7812V22H19.3438Z"
            fill="#0052B4" />
        <path
            d="M2 2V3.75781L7.11719 8.875H8.875L2 2ZM10.125 2V10.125H2V13.875H10.125V22H13.875V13.875H22V10.125H13.875V2H10.125ZM20.2422 2L15.125 7.11719V8.875L22 2H20.2422ZM8.875 15.125L2 22H3.75781L8.875 16.8828V15.125ZM15.125 15.125L22 22V20.2422L16.8828 15.125H15.125Z"
            fill="#D80027" />
    </g>
</svg>