<svg width="24" height="24" viewBox="0 0 24 24" fill="none" xmlns="http://www.w3.org/2000/svg">
    <mask id="mask0_1583_9416" style="mask-type:luminance" maskUnits="userSpaceOnUse" x="2" y="2" width="20"
        height="20">
        <path
            d="M12 22C17.5228 22 22 17.5228 22 12C22 6.47715 17.5228 2 12 2C6.47715 2 2 6.47715 2 12C2 17.5228 6.47715 22 12 22Z"
            fill="white" />
    </mask>
    <g mask="url(#mask0_1583_9416)">
        <path
            d="M2 8.95312L11.9297 8.09375L22 8.95312V9.82422L20.4297 11.9375L22 14.1758V15.0469L12.0781 15.9609L2 15.0469V14.1758L3.43359 11.8555L2 9.82422V8.95312Z"
            fill="#D80027" />
        <path d="M2 2H22V8.95312H2V2Z" fill="#338AF3" />
        <path d="M2 9.82422H22V14.1758H2V9.82422Z" fill="#EEEEEE" />
        <path d="M2 15.0469H22V22H2V15.0469Z" fill="#6DA544" />
        <path
            d="M6.57817 6.1289C6.57765 5.68312 6.72964 5.25057 7.00889 4.9031C7.28815 4.55563 7.67787 4.31414 8.11332 4.21874C7.97594 4.18949 7.83582 4.17509 7.69536 4.17577C7.42376 4.18001 7.15604 4.24085 6.90929 4.35441C6.66254 4.46797 6.44219 4.63175 6.26232 4.83528C6.08245 5.03882 5.947 5.27763 5.86465 5.53647C5.78229 5.79531 5.75483 6.06848 5.78401 6.33853C5.8132 6.60859 5.8984 6.86958 6.03416 7.10485C6.16992 7.34011 6.35326 7.54447 6.57247 7.70487C6.79167 7.86528 7.04193 7.97819 7.30724 8.0364C7.57256 8.09462 7.8471 8.09685 8.11332 8.04296C7.23442 7.84765 6.57817 7.0664 6.57817 6.1289ZM9.27348 7.01952L9.40239 7.42577H9.83207L9.48051 7.67968L9.61723 8.08593L9.26567 7.83593L8.92582 8.08593L9.05864 7.67968L8.70707 7.42577H9.13676L9.27348 7.01952ZM10.6407 7.01952L10.7735 7.42577H11.2032L10.8516 7.67968L10.9844 8.08593L10.6407 7.83593L10.2891 8.08593L10.4258 7.67968L10.0743 7.42577H10.5039L10.6407 7.01952ZM12.0079 7.01952L12.1407 7.42577H12.5704L12.2188 7.67968L12.3555 8.08593L12.0039 7.83593L11.6602 8.08593L11.793 7.67968L11.4414 7.42577H11.8711L12.0079 7.01952ZM13.375 7.01952L13.5079 7.42577H13.9375L13.586 7.67968L13.7227 8.08593L13.3711 7.83593L13.0274 8.08593L13.1602 7.67968L12.8086 7.42577H13.2383L13.375 7.01952ZM14.7422 7.01952L14.875 7.42577H15.3047L14.9532 7.67968L15.0899 8.08593L14.7383 7.83593L14.3946 8.08593L14.5274 7.67968L14.1836 7.42577H14.6133L14.7422 7.01952ZM10.6407 5.59765L10.7735 6.0039H11.2032L10.8516 6.25781L10.9844 6.66406L10.6407 6.41015L10.2891 6.66406L10.4258 6.25781L10.0743 6.0039H10.5039L10.6407 5.59765ZM12.0079 5.59765L12.1407 6.0039H12.5704L12.2188 6.25781L12.3555 6.66406L12.0039 6.41015L11.6602 6.66406L11.793 6.25781L11.4414 6.0039H11.8711L12.0079 5.59765ZM13.375 5.59765L13.5079 6.0039H13.9375L13.586 6.25781L13.7227 6.66406L13.3711 6.41015L13.0274 6.66406L13.1602 6.25781L12.8086 6.0039H13.2383L13.375 5.59765ZM14.7422 5.59765L14.875 6.0039H15.3047L14.9532 6.25781L15.0899 6.66406L14.7383 6.41015L14.3946 6.66406L14.5274 6.25781L14.1836 6.0039H14.6133L14.7422 5.59765ZM12.0079 4.17577L12.1407 4.58202H12.5704L12.2188 4.83202L12.3594 5.24218L12.0079 4.98827L11.6641 5.24218L11.7969 4.83202L11.4454 4.58202H11.875L12.0079 4.17577ZM13.375 4.17577L13.5079 4.58202H13.9375L13.586 4.83202L13.7266 5.24218L13.375 4.98827L13.0313 5.24218L13.1641 4.83202L12.8125 4.58202H13.2422L13.375 4.17577ZM14.7422 4.17577L14.875 4.58202H15.3047L14.9532 4.83202L15.0938 5.24218L14.7422 4.98827L14.3985 5.24218L14.5313 4.83202L14.1875 4.58202H14.6172L14.7422 4.17577Z"
            fill="#EEEEEE" />
    </g>
</svg>