<svg width="24" height="24" viewBox="0 0 24 24" fill="none" xmlns="http://www.w3.org/2000/svg">
    <mask id="mask0_2065_2024" style="mask-type:alpha" maskUnits="userSpaceOnUse" x="0" y="0" width="24" height="24">
        <rect width="24" height="24" fill="#D9D9D9" />
    </mask>
    <g mask="url(#mask0_2065_2024)">
        <path
            d="M20.6575 8.54707C20.5288 8.40261 20.3709 8.28708 20.1943 8.20812C20.0176 8.12916 19.8263 8.08856 19.6328 8.089H15.5679C15.5679 7.00913 15.1389 5.97348 14.3753 5.2099C13.6118 4.44631 12.5761 4.01733 11.4962 4.01733C10.4164 4.01733 9.38071 4.44631 8.61713 5.2099C7.85354 5.97348 7.42456 7.00913 7.42456 8.089H3.35968C3.16735 8.08952 2.97728 8.13058 2.80189 8.20951C2.62649 8.28844 2.46971 8.40346 2.34176 8.54707C2.21489 8.69014 2.11968 8.85841 2.06237 9.04085C2.00507 9.22329 1.98696 9.41578 2.00924 9.6057L3.21887 19.7849C3.2581 20.1165 3.41824 20.4221 3.66864 20.6431C3.91905 20.864 4.24213 20.9849 4.57609 20.9826H18.424C18.758 20.9849 19.0811 20.864 19.3315 20.6431C19.5819 20.4221 19.742 20.1165 19.7812 19.7849L20.9909 9.6057C21.013 9.41571 20.9948 9.22319 20.9373 9.04075C20.8799 8.85831 20.7845 8.69007 20.6575 8.54707ZM8.78179 11.4821C8.78179 11.662 8.71029 11.8346 8.58303 11.9619C8.45576 12.0892 8.28315 12.1607 8.10318 12.1607C7.9232 12.1607 7.75059 12.0892 7.62332 11.9619C7.49606 11.8346 7.42456 11.662 7.42456 11.4821V10.1248C7.42456 9.94486 7.49606 9.77225 7.62332 9.64499C7.75059 9.51772 7.9232 9.44623 8.10318 9.44623C8.28315 9.44623 8.45576 9.51772 8.58303 9.64499C8.71029 9.77225 8.78179 9.94486 8.78179 10.1248V11.4821ZM11.4962 5.37456C12.2161 5.37456 12.9066 5.66054 13.4156 6.1696C13.9247 6.67866 14.2107 7.36909 14.2107 8.089H8.78179C8.78179 7.36909 9.06777 6.67866 9.57683 6.1696C10.0859 5.66054 10.7763 5.37456 11.4962 5.37456ZM15.5679 11.4821C15.5679 11.662 15.4964 11.8346 15.3691 11.9619C15.2419 12.0892 15.0693 12.1607 14.8893 12.1607C14.7093 12.1607 14.5367 12.0892 14.4094 11.9619C14.2822 11.8346 14.2107 11.662 14.2107 11.4821V10.1248C14.2107 9.94486 14.2822 9.77225 14.4094 9.64499C14.5367 9.51772 14.7093 9.44623 14.8893 9.44623C15.0693 9.44623 15.2419 9.51772 15.3691 9.64499C15.4964 9.77225 15.5679 9.94486 15.5679 10.1248V11.4821Z"
            fill="#AFAFAF" />
    </g>
</svg>