<svg width="25" height="24" viewBox="0 0 25 24" fill="none" xmlns="http://www.w3.org/2000/svg">
    <g clip-path="url(#clip0_2065_2291)">
        <path
            d="M22.25 9C22.25 8.60218 22.092 8.22064 21.8107 7.93934C21.5294 7.65804 21.1478 7.5 20.75 7.5H17.75V4.5C17.75 4.10218 17.592 3.72064 17.3107 3.43934C17.0294 3.15804 16.6478 3 16.25 3H4.25C3.85218 3 3.47064 3.15804 3.18934 3.43934C2.90804 3.72064 2.75 4.10218 2.75 4.5V16.5C2.75044 16.6411 2.79068 16.7792 2.86608 16.8985C2.94149 17.0177 3.04901 17.1133 3.17629 17.1742C3.30358 17.2351 3.44546 17.2589 3.58564 17.2428C3.72581 17.2266 3.8586 17.1713 3.96875 17.0831L7.25 14.4375V17.25C7.25 17.6478 7.40804 18.0294 7.68934 18.3107C7.97064 18.592 8.35218 18.75 8.75 18.75H17.5241L21.0312 21.5831C21.164 21.6905 21.3293 21.7493 21.5 21.75C21.6989 21.75 21.8897 21.671 22.0303 21.5303C22.171 21.3897 22.25 21.1989 22.25 21V9ZM18.2609 17.4169C18.1282 17.3095 17.9629 17.2507 17.7922 17.25H8.75V14.25H16.25C16.6478 14.25 17.0294 14.092 17.3107 13.8107C17.592 13.5294 17.75 13.1478 17.75 12.75V9H20.75V19.4297L18.2609 17.4169Z"
            fill="#AFAFAF" />
    </g>
    <defs>
        <clipPath id="clip0_2065_2291">
            <rect width="24" height="24" fill="white" transform="translate(0.5)" />
        </clipPath>
    </defs>
</svg>